<svg width="9" height="9" viewBox="0 0 9 9" fill="none" xmlns="http://www.w3.org/2000/svg">
<g clip-path="url(#clip0_490_3278)">
<ellipse cx="4.27322" cy="4.7875" rx="3.02419" ry="3.02419" stroke="#2B2B2B" stroke-width="0.8" stroke-linecap="round"/>
<path d="M1.92107 6.80359L1.24902 7.47563M6.62537 6.80359L7.29741 7.47563" stroke="#2B2B2B" stroke-width="0.8" stroke-linecap="round" stroke-linejoin="round"/>
<path d="M6.62545 1.61868L6.82555 1.51863C7.10958 1.37661 7.21628 1.39287 7.44209 1.61868C7.66789 1.84449 7.68415 1.95119 7.54214 2.23521L7.44209 2.43531M1.92115 1.61868L1.72105 1.51863C1.43703 1.37661 1.33033 1.39287 1.10452 1.61868C0.878709 1.84449 0.862455 1.95119 1.00447 2.23521L1.10452 2.43531" stroke="#2B2B2B" stroke-width="0.8" stroke-linecap="round"/>
<path d="M4.27344 3.61139V4.95547L4.94548 5.62752" stroke="#2B2B2B" stroke-width="0.8" stroke-linecap="round" stroke-linejoin="round"/>
<path d="M4.27344 1.59528V1.09125" stroke="#2B2B2B" stroke-width="0.8" stroke-linecap="round" stroke-linejoin="round"/>
<path d="M3.60107 1.09125H4.94516" stroke="#2B2B2B" stroke-width="0.8" stroke-linecap="round" stroke-linejoin="round"/>
</g>
<defs>
<clipPath id="clip0_490_3278">
<rect width="8.06452" height="8.06452" fill="white" transform="translate(0.241211 0.419189)"/>
</clipPath>
</defs>
</svg>
