<svg width="46" height="46" viewBox="0 0 46 46" fill="none" xmlns="http://www.w3.org/2000/svg">
<path d="M22.9993 43.8333C11.4933 43.8333 2.16602 34.5059 2.16602 23C2.16602 11.494 11.4934 2.16663 22.9994 2.16663C32.3278 2.16663 40.1362 8.29765 42.7909 16.75H37.5826" stroke="#FF904E" stroke-width="3" stroke-linecap="round" stroke-linejoin="round"/>
<path d="M23 14.6666V23L27.1667 27.1666" stroke="#FF904E" stroke-width="3" stroke-linecap="round" stroke-linejoin="round"/>
<path d="M43.7397 25.0833C43.8017 24.3976 43.8333 23.7027 43.8333 23M29.25 43.8333C29.9617 43.5991 30.6569 43.3259 31.3333 43.0162M41.3138 33.4167C41.7155 32.6425 42.0739 31.8401 42.3855 31.013M35.9009 40.1442C36.6186 39.5503 37.2981 38.9079 37.935 38.2219" stroke="#FF904E" stroke-width="3" stroke-linecap="round" stroke-linejoin="round"/>
</svg>
