<svg width="73" height="73" viewBox="0 0 73 73" fill="none" xmlns="http://www.w3.org/2000/svg">
<path d="M46.875 20.9374C46.875 20.9374 48.6042 20.9374 50.3333 24.3958C50.3333 24.3958 55.826 15.7499 60.7083 14.0208" stroke="#24C500" stroke-width="2" stroke-linecap="round" stroke-linejoin="round"/>
<path d="M71.0833 19.2083C71.0833 28.7582 63.3416 36.5 53.7917 36.5C44.2417 36.5 36.5 28.7582 36.5 19.2083C36.5 9.65837 44.2417 1.91663 53.7917 1.91663C63.3416 1.91663 71.0833 9.65837 71.0833 19.2083Z" stroke="#24C500" stroke-width="2" stroke-linecap="round"/>
<path d="M1.9165 29.5833H2.9165H1.9165ZM31.2106 2.91663C31.7629 2.91663 32.2106 2.46891 32.2106 1.91663C32.2106 1.36434 31.7629 0.916626 31.2106 0.916626L31.2106 2.91663ZM31.2106 71.0833V72.0833V71.0833ZM1.9165 43.4166H0.916504H1.9165ZM34.8724 71.0833V70.0833V71.0833ZM59.8765 67.0316L60.5631 67.7586L59.8765 67.0316ZM65.1663 44.8645C65.1665 44.3122 64.719 43.8642 64.1668 43.864C63.6145 43.8637 63.1665 44.3112 63.1663 44.8635L65.1663 44.8645ZM34.8724 70.0833H31.2106V72.0833H34.8724V70.0833ZM2.9165 43.4166L2.9165 29.5833H0.916505L0.916504 43.4166L2.9165 43.4166ZM2.9165 29.5833C2.9165 23.0323 2.91888 18.2255 3.44278 14.5453C3.96171 10.9 4.97472 8.50718 6.89315 6.69533L5.51991 5.2413C3.14832 7.48114 2.01632 10.3747 1.46274 14.2634C0.91413 18.1172 0.916505 23.0921 0.916505 29.5833H2.9165ZM31.2106 0.916626C24.3327 0.916626 19.0791 0.914727 15.0129 1.43105C10.9234 1.95032 7.88343 3.00909 5.51991 5.2413L6.89315 6.69533C8.81966 4.87585 11.377 3.90878 15.2648 3.41512C19.1757 2.91852 24.2792 2.91663 31.2106 2.91663L31.2106 0.916626ZM31.2106 70.0833C24.2792 70.0833 19.1757 70.0814 15.2648 69.5848C11.377 69.0911 8.81966 68.1241 6.89315 66.3046L5.5199 67.7586C7.88342 69.9908 10.9234 71.0496 15.0128 71.5689C19.0791 72.0852 24.3327 72.0833 31.2106 72.0833V70.0833ZM0.916504 43.4166C0.916504 49.9078 0.914128 54.8827 1.46274 58.7365C2.01632 62.6252 3.14831 65.5188 5.5199 67.7586L6.89315 66.3046C4.97472 64.4927 3.9617 62.0999 3.44278 58.4546C2.91888 54.7744 2.9165 49.9676 2.9165 43.4166L0.916504 43.4166ZM34.8724 72.0833C41.7503 72.0833 47.0039 72.0852 51.0702 71.5689C55.1596 71.0496 58.1996 69.9908 60.5631 67.7586L59.1899 66.3046C57.2633 68.1241 54.706 69.0911 50.8182 69.5848C46.9073 70.0814 41.8038 70.0833 34.8724 70.0833V72.0833ZM63.1663 44.8635C63.1633 50.9285 63.1205 55.4104 62.5794 58.8619C62.0437 62.2785 61.0367 64.5603 59.1899 66.3046L60.5631 67.7586C62.8445 65.6039 63.9795 62.8434 64.5552 59.1717C65.1254 55.5349 65.1633 50.8825 65.1663 44.8645L63.1663 44.8635Z" fill="#24C500"/>
<path d="M19.208 39.9583H33.0413" stroke="#24C500" stroke-width="2" stroke-linecap="round"/>
<path d="M19.208 53.7916H46.8747" stroke="#24C500" stroke-width="2" stroke-linecap="round"/>
</svg>
