<svg width="59" height="31" viewBox="0 0 59 31" fill="none" xmlns="http://www.w3.org/2000/svg">
<path d="M58.2488 0.0123291H52.1614L41.4882 22.6694L30.4365 0.85114L30.0173 0.0246194H24.3491V0.85114V30.6243H30.4365V12.8679L38.8262 29.4291H44.3943L44.6445 28.9006L52.1614 12.9417V23.1887H58.2488V0.0246194H58.2457L58.2488 0.0123291Z" fill="#FF914D"/>
<path d="M21.9001 7.28505C20.5604 4.97719 18.5645 3.10323 16.1569 1.8927C13.6961 0.6309 10.8839 0 7.72026 0H0V12.2503H6.20311V5.73955H7.73903C10.7858 5.73955 13.1476 6.63265 14.8243 8.41883C16.501 10.205 17.3351 12.5094 17.3268 15.3321C17.331 18.0155 16.4665 20.2789 14.7336 22.1225C13.0006 23.966 10.6691 24.8878 7.73903 24.8878H6.20311V18.3985H0V30.6243H7.72026C10.6494 30.6781 13.5479 30.0317 16.1662 28.7408C18.5692 27.5371 20.562 25.6704 21.9001 23.3699C23.264 21.0471 23.9459 18.3678 23.9459 15.3321C23.9459 12.2964 23.264 9.61406 21.9001 7.28505Z" fill="#DB4A2B"/>
</svg>
