<svg width="14" height="16" viewBox="0 0 14 16" fill="none" xmlns="http://www.w3.org/2000/svg">
<path d="M8.0785 14.2446C7.78937 14.5153 7.40293 14.6666 7.00075 14.6666C6.59856 14.6666 6.21212 14.5153 5.92299 14.2446C3.27535 11.7506 -0.272825 8.96459 1.45751 4.91976C2.39309 2.73275 4.6389 1.33331 7.00075 1.33331C9.36259 1.33331 11.6084 2.73275 12.544 4.91976C14.2721 8.95949 10.7327 11.7592 8.0785 14.2446Z" stroke="#ABABAB"/>
<path d="M9.33268 7.33333C9.33268 8.622 8.28801 9.66667 6.99935 9.66667C5.71068 9.66667 4.66602 8.622 4.66602 7.33333C4.66602 6.04467 5.71068 5 6.99935 5C8.28801 5 9.33268 6.04467 9.33268 7.33333Z" stroke="#ABABAB"/>
</svg>
