<svg width="109" height="56" viewBox="0 0 109 56" fill="none" xmlns="http://www.w3.org/2000/svg">
<path d="M96.1934 0.0175781H87.2833L71.6608 33.1809L55.4843 1.24535L54.8708 0.0355675H46.5742V1.24535V44.8245H55.4843V18.8344L67.7644 43.0751H75.9144L76.2807 42.3015L87.2833 18.9424V33.941H96.1934V0.0355675H96.1888L96.1934 0.0175781Z" fill="#FF914D"/>
<path d="M42.9894 10.6632C41.0285 7.28515 38.107 4.54222 34.583 2.77036C30.9811 0.923453 26.8648 0 22.2343 0H10.9341V17.9309H20.0136V8.40102H22.2617C26.7214 8.40102 30.1783 9.70825 32.6325 12.3227C35.0866 14.9371 36.3076 18.3101 36.2954 22.4417C36.3015 26.3694 35.0363 29.6824 32.4997 32.3808C29.9631 35.0792 26.5504 36.4284 22.2617 36.4284H20.0136V26.93H10.9341V44.8249H22.2343C26.5217 44.9037 30.7643 43.9575 34.5967 42.0681C38.1139 40.3062 41.0308 37.5739 42.9894 34.2067C44.9857 30.8067 45.9839 26.8851 45.9839 22.4417C45.9839 17.9983 44.9857 14.0722 42.9894 10.6632Z" fill="#DB4A2B"/>
<path d="M0.833496 55.8572V48.8683H3.12284C3.63422 48.8639 4.14145 48.9587 4.61549 49.1471C5.0412 49.3236 5.42365 49.5874 5.73727 49.9207C6.04511 50.2438 6.28614 50.6226 6.44696 51.036C6.7843 51.905 6.7843 52.8655 6.44696 53.7344C6.2871 54.1456 6.04589 54.5216 5.73727 54.8408C5.41466 55.1653 5.02624 55.4197 4.59717 55.5873C4.12762 55.7684 3.62726 55.8599 3.12284 55.8572H0.833496ZM1.44246 55.3175H3.12284C3.55085 55.3231 3.97573 55.2451 4.37282 55.0881C4.72222 54.9462 5.03504 54.7295 5.28855 54.454C5.54397 54.1834 5.74169 53.8653 5.87005 53.5186C6.00582 53.151 6.07403 52.7627 6.07151 52.3717C6.07891 51.8558 5.9612 51.3455 5.72811 50.8831C5.49892 50.439 5.14447 50.069 4.70706 49.8172C4.22632 49.5432 3.67857 49.4033 3.12284 49.4125H1.44246V55.3175Z" fill="white"/>
<path d="M8.4248 55.857V48.8682H9.03377V55.857H8.4248Z" fill="white"/>
<path d="M10.5859 55.857V48.8682H11.2041L15.6637 54.7867V48.8682H16.2727V55.857H15.6729L11.1949 49.8531V55.857H10.5859Z" fill="white"/>
<path d="M17.6099 55.8567V48.8678H20.5219C21.0434 48.8416 21.5551 49.014 21.9505 49.3491C22.1308 49.5152 22.2721 49.718 22.3646 49.9432C22.4571 50.1684 22.4986 50.4107 22.4862 50.6533C22.5015 51.0399 22.3729 51.4188 22.1244 51.7191C21.9035 51.9932 21.593 52.1839 21.2453 52.2588C21.638 52.3213 21.9899 52.5329 22.2252 52.848C22.4923 53.1638 22.6381 53.5617 22.6373 53.9723C22.6508 54.2276 22.6088 54.4828 22.5141 54.7208C22.4193 54.9589 22.274 55.1744 22.0878 55.353C21.6775 55.7083 21.1413 55.8908 20.5952 55.8612L17.6099 55.8567ZM18.2326 52.0025H20.4715C20.6595 52.0144 20.848 51.9882 21.0252 51.9255C21.2024 51.8628 21.3646 51.765 21.5017 51.6382C21.6236 51.5163 21.7189 51.3712 21.7819 51.212C21.8449 51.0527 21.8742 50.8825 21.868 50.7117C21.873 50.5405 21.8431 50.3699 21.7802 50.2101C21.7173 50.0502 21.6227 49.9043 21.5017 49.7808C21.365 49.6531 21.203 49.5545 21.0257 49.4911C20.8485 49.4276 20.6598 49.4007 20.4715 49.412H18.2326V52.0025ZM18.2326 55.317H20.5219C20.9239 55.3391 21.3186 55.205 21.6208 54.9437C21.7549 54.8113 21.8595 54.653 21.9281 54.4788C21.9966 54.3047 22.0277 54.1184 22.0191 53.9318C22.0226 53.7513 21.9892 53.5718 21.9207 53.4042C21.8523 53.2366 21.7503 53.0841 21.6208 52.9559C21.4767 52.8166 21.3045 52.7085 21.1152 52.6388C20.9258 52.569 20.7237 52.5392 20.5219 52.5512H18.2326V55.317Z" fill="white"/>
<path d="M23.6445 48.8682H24.3817L26.7764 52.3041L29.171 48.8682H29.9036L27.0785 52.8708V55.857H26.4742V52.8708L23.6445 48.8682Z" fill="white"/>
<path d="M30.5495 53.8417C30.1716 52.8933 30.1716 51.8399 30.5495 50.8915C30.7215 50.4606 30.9835 50.0699 31.3187 49.7446C31.6484 49.4309 32.0372 49.1834 32.4634 49.0161C32.9099 48.8385 33.3874 48.7483 33.8691 48.7507C34.3778 48.7403 34.8825 48.8419 35.346 49.0481C35.8095 49.2544 36.2201 49.56 36.5476 49.9425L36.0897 50.2663C35.8296 49.9576 35.4985 49.714 35.1236 49.5558C34.687 49.3674 34.212 49.2803 33.7356 49.3014C33.2592 49.3224 32.7941 49.451 32.3764 49.6772C31.9255 49.935 31.5574 50.3121 31.3142 50.7655C31.0584 51.2602 30.9251 51.8073 30.9251 52.3621C30.9251 52.9169 31.0584 53.4639 31.3142 53.9586C31.5597 54.414 31.9269 54.7949 32.3764 55.0605C32.8346 55.3233 33.3569 55.4585 33.8874 55.4518C34.2982 55.4548 34.7047 55.3688 35.0778 55.1999C35.4159 55.0538 35.7257 54.8515 35.9936 54.6018V52.9243H33.2693V52.3846H36.5476V54.8311C36.0353 55.3748 35.3664 55.7522 34.6302 55.9129C33.8939 56.0736 33.1253 56.01 32.4268 55.7306C31.9916 55.5649 31.5966 55.3117 31.267 54.9872C30.9374 54.6626 30.6805 54.274 30.5129 53.8462L30.5495 53.8417Z" fill="white"/>
<path d="M37.4904 53.8416C37.1126 52.8932 37.1126 51.8398 37.4904 50.8914C37.6624 50.4605 37.9244 50.0698 38.2597 49.7446C38.5893 49.4308 38.9781 49.1833 39.4043 49.016C39.8508 48.8384 40.3283 48.7483 40.81 48.7506C41.318 48.7409 41.8217 48.8428 42.2844 49.049C42.7471 49.2552 43.1569 49.5605 43.4839 49.9424L43.0261 50.2662C42.7608 49.9552 42.4231 49.7115 42.0417 49.5557C41.6052 49.3666 41.1301 49.2792 40.6536 49.3002C40.177 49.3213 39.7119 49.4503 39.2944 49.6771C38.8406 49.9327 38.4705 50.3103 38.2276 50.7654C37.9718 51.2601 37.8385 51.8072 37.8385 52.362C37.8385 52.9168 37.9718 53.4639 38.2276 53.9586C38.4734 54.4151 38.8425 54.7964 39.2944 55.0604C39.7507 55.3237 40.2717 55.459 40.8008 55.4517C41.2117 55.4547 41.6182 55.3688 41.9913 55.1998C42.3293 55.0537 42.6391 54.8514 42.907 54.6017V52.9242H40.2102V52.3845H43.5068V54.831C42.9945 55.3747 42.3257 55.7521 41.5894 55.9128C40.8532 56.0735 40.0845 56.0099 39.386 55.7305C38.952 55.5629 38.558 55.309 38.2286 54.9847C37.8993 54.6605 37.6417 54.2728 37.4721 53.8461L37.4904 53.8416Z" fill="white"/>
<path d="M44.8394 55.857V48.8682H49.3677V49.4123H45.4483V52.0028H49.2761V52.547H45.4483V55.3173H49.3677V55.8615L44.8394 55.857Z" fill="white"/>
<path d="M50.6406 55.857V48.8682H51.5564L53.9785 54.6292L56.3869 48.8682H57.3026V55.857H56.6936V49.6867L54.0838 55.857H53.8457L51.2496 49.6867V55.857H50.6406Z" fill="white"/>
<path d="M58.5479 55.857L61.4599 48.8682H62.2154L65.1274 55.857H64.4223L63.7218 54.139H59.9535L59.253 55.857H58.5479ZM60.1595 53.6084H63.5157L61.8353 49.5203L60.1595 53.6084Z" fill="white"/>
<path d="M66.3867 55.8565V48.8676H69.0561C69.6269 48.8473 70.1835 49.0457 70.6083 49.4208C70.8136 49.6109 70.9748 49.8423 71.0806 50.0993C71.1865 50.3562 71.2347 50.6325 71.2218 50.9094C71.2357 51.1757 71.1924 51.4419 71.0945 51.6907C70.9967 51.9394 70.8466 52.1651 70.6541 52.3531C70.2756 52.7102 69.7731 52.9127 69.2484 52.9197L71.3042 55.8565H70.5716L68.5753 52.9602H66.9957V55.8565H66.3867ZM66.9957 52.416H68.9874C69.1962 52.4243 69.4046 52.3916 69.6004 52.3198C69.7962 52.248 69.9754 52.1385 70.1275 51.9978C70.2767 51.8576 70.3945 51.6885 70.4734 51.5011C70.5522 51.3136 70.5903 51.1121 70.5854 50.9094C70.5905 50.708 70.5524 50.5078 70.4735 50.3218C70.3946 50.1359 70.2767 49.9683 70.1275 49.8301C69.9758 49.6887 69.7967 49.5788 69.6008 49.507C69.4049 49.4351 69.1963 49.4027 68.9874 49.4118H66.9957V52.416Z" fill="white"/>
<path d="M72.9297 55.857V48.8682H73.5386V52.6954L76.9727 48.8682H77.7556L74.7245 52.2007L78.0441 55.857H77.2611L74.3308 52.565L73.5432 53.415V55.857H72.9297Z" fill="white"/>
<path d="M79.3945 55.857V48.8682H83.9V49.4123H80.0035V52.0028H83.8267V52.547H80.0035V55.3173H83.9V55.8615L79.3945 55.857Z" fill="white"/>
<path d="M85.4062 55.8572V48.8683H87.6956C88.207 48.8639 88.7142 48.9587 89.1882 49.1471C89.6184 49.3148 90.0072 49.5709 90.3283 49.8982C90.6362 50.2213 90.8772 50.6001 91.038 51.0135C91.3754 51.8825 91.3754 52.843 91.038 53.7119C90.8782 54.1231 90.637 54.4992 90.3283 54.8183C90.0057 55.1428 89.6173 55.3972 89.1882 55.5648C88.7133 55.7497 88.2065 55.8428 87.6956 55.8392L85.4062 55.8572ZM85.9969 55.3175H87.659C88.087 55.3231 88.5118 55.2451 88.9089 55.0881C89.2583 54.9462 89.5712 54.7295 89.8247 54.454C90.0768 54.1826 90.2714 53.8646 90.397 53.5186C90.5328 53.151 90.601 52.7627 90.5985 52.3717C90.6059 51.8558 90.4882 51.3455 90.2551 50.8831C90.0259 50.439 89.6714 50.069 89.234 49.8172C88.7502 49.5432 88.199 49.4048 87.6406 49.417H85.9969V55.3175Z" fill="white"/>
<path d="M92.1646 55.4878C92.1627 55.3711 92.207 55.2582 92.2882 55.173C92.3249 55.1306 92.3705 55.0966 92.4219 55.0733C92.4733 55.05 92.5292 55.038 92.5859 55.0381C92.6438 55.0379 92.7012 55.0498 92.7541 55.073C92.807 55.0963 92.8542 55.1304 92.8926 55.173C92.9755 55.2575 93.0215 55.3705 93.0208 55.4878C93.0209 55.6091 92.9752 55.726 92.8926 55.8161C92.855 55.86 92.8081 55.8953 92.755 55.9194C92.702 55.9435 92.6443 55.9558 92.5859 55.9555C92.5288 55.9558 92.4724 55.9433 92.4208 55.9192C92.3693 55.8951 92.324 55.8598 92.2882 55.8161C92.2069 55.7256 92.1628 55.6085 92.1646 55.4878Z" fill="white"/>
<path d="M94.4766 55.857V48.8682H95.0947L99.5543 54.7867V48.8682H100.163V55.857H99.5635L95.0855 49.8531V55.857H94.4766Z" fill="white"/>
<path d="M101.482 53.7967C101.315 53.3379 101.231 52.8538 101.235 52.3665C101.231 51.8807 101.314 51.398 101.482 50.9409C101.637 50.5171 101.873 50.1263 102.178 49.7895C102.483 49.4623 102.856 49.2032 103.272 49.0295C103.719 48.842 104.201 48.7471 104.687 48.7507C105.331 48.7382 105.965 48.9034 106.518 49.2274C107.04 49.5401 107.462 49.9904 107.736 50.5271C108.019 51.1004 108.167 51.7293 108.167 52.3665C108.167 53.0037 108.019 53.6326 107.736 54.2059C107.462 54.7426 107.04 55.193 106.518 55.5057C105.966 55.8317 105.331 55.997 104.687 55.9824C104.201 55.986 103.719 55.891 103.272 55.7035C102.856 55.5298 102.483 55.2707 102.178 54.9435C101.874 54.6077 101.638 54.2186 101.482 53.7967ZM101.876 52.3665C101.843 53.171 102.117 53.9584 102.645 54.5747C102.898 54.8595 103.213 55.0852 103.566 55.2354C103.919 55.3855 104.302 55.4564 104.687 55.4427C105.21 55.4523 105.725 55.3133 106.17 55.0424C106.602 54.7764 106.947 54.3939 107.164 53.9406C107.399 53.4485 107.517 52.9101 107.507 52.3665C107.54 51.5592 107.262 50.7693 106.729 50.1538C106.475 49.8704 106.16 49.6462 105.807 49.4976C105.453 49.349 105.071 49.2797 104.687 49.2948C104.163 49.2845 103.646 49.4219 103.199 49.6906C102.771 49.9549 102.429 50.3342 102.214 50.7834C101.981 51.2793 101.866 51.8205 101.876 52.3665Z" fill="white"/>
</svg>
