<svg width="72" height="72" viewBox="0 0 72 72" fill="none" xmlns="http://www.w3.org/2000/svg">
<path d="M32.5226 67.5H27.6191C15.0707 67.5 8.79656 67.5 4.89828 63.5276C0.999996 59.5553 0.999996 53.1618 0.999996 40.375C0.999996 27.5882 0.999996 21.1947 4.89828 17.2224C8.79656 13.25 15.0707 13.25 27.6191 13.25H40.9287C53.4771 13.25 59.7512 13.25 63.6495 17.2224C66.6488 20.2787 67.3405 24.7681 67.5 32.5" stroke="#FFC600" stroke-width="2" stroke-linecap="round" stroke-linejoin="round"/>
<path d="M55.25 62.3375H55.2783M55.2808 55.25V48.1625M71 55.25C71 63.9485 63.9485 71 55.25 71C46.5515 71 39.5 63.9485 39.5 55.25C39.5 46.5515 46.5515 39.5 55.25 39.5C63.9485 39.5 71 46.5515 71 55.25Z" stroke="#FFC600" stroke-width="2" stroke-linecap="round"/>
<path d="M50 13.25L49.6523 12.1683C47.9198 6.77812 47.0535 4.08304 44.9911 2.54152C42.9288 1 40.1893 1 34.7105 1H33.7895C28.3107 1 25.5712 1 23.5089 2.54152C21.4465 4.08304 20.5802 6.77812 18.8477 12.1683L18.5 13.25" stroke="#FFC600" stroke-width="2" stroke-linecap="round" stroke-linejoin="round"/>
</svg>
