<svg width="25" height="25" viewBox="0 0 25 25" fill="none" xmlns="http://www.w3.org/2000/svg">
<path d="M14.6657 3.89416L16.422 7.44459C16.6615 7.93882 17.3009 8.41328 17.8408 8.50454L21.0299 9.042C23.0693 9.38678 23.5478 10.8793 22.0765 12.3498L19.5943 14.8475C19.174 15.2706 18.9432 16.0869 19.0726 16.6718L19.7795 19.7675C20.337 22.2179 19.0462 23.1643 16.8977 21.8818L13.9098 20.0944C13.3702 19.7713 12.4803 19.7704 11.93 20.0925L8.93861 21.874C6.79758 23.1522 5.49867 22.1932 6.06101 19.754L6.77397 16.6597C6.90453 16.0751 6.67536 15.2583 6.25583 14.8344L3.77856 12.3318C2.32017 10.8584 2.79159 9.36683 4.8317 9.02607L8.02187 8.49488C8.5519 8.40467 9.19229 7.93147 9.43275 7.43771L11.196 3.89075C12.1578 1.96612 13.7177 1.96766 14.6657 3.89416Z" fill="#ECDC2B"/>
</svg>
