<svg width="10" height="11" viewBox="0 0 10 11" fill="none" xmlns="http://www.w3.org/2000/svg">
<path d="M6.07057 1.62215L6.89578 3.28619C7.0083 3.51783 7.30838 3.74002 7.56156 3.78257L9.05724 4.03312C10.0137 4.19385 10.2388 4.8935 9.54955 5.5837L8.38677 6.7561C8.18984 6.95465 8.082 7.33757 8.14296 7.61175L8.47585 9.06307C8.73841 10.2118 8.13358 10.6562 7.12552 10.0558L5.72361 9.21907C5.47043 9.06779 5.05314 9.06779 4.79526 9.21907L3.39336 10.0558C2.38998 10.6562 1.78046 10.2071 2.04302 9.06307L2.37592 7.61175C2.43687 7.33757 2.32903 6.95465 2.13211 6.7561L0.969324 5.5837C0.284781 4.8935 0.505148 4.19385 1.46163 4.03312L2.95731 3.78257C3.20581 3.74002 3.50588 3.51783 3.61841 3.28619L4.44361 1.62215C4.89372 0.719213 5.62515 0.719213 6.07057 1.62215Z" fill="#EEDD2B"/>
</svg>
