<svg width="16" height="16" viewBox="0 0 16 16" fill="none" xmlns="http://www.w3.org/2000/svg">
<path d="M12.661 12.6666H12.6673M12.661 12.6666C12.2459 13.0783 11.4935 12.9758 10.9659 12.9758C10.3183 12.9758 10.0065 13.1025 9.54427 13.5647C9.15071 13.9582 8.62314 14.6666 8.00067 14.6666C7.37818 14.6666 6.8506 13.9582 6.45703 13.5647C5.99484 13.1025 5.68298 12.9758 5.03536 12.9758C4.50777 12.9758 3.75544 13.0783 3.34031 12.6666C2.92186 12.2517 3.02484 11.4962 3.02484 10.9653C3.02484 10.2943 2.87809 9.98571 2.40024 9.50787C1.68941 8.79706 1.334 8.44161 1.33398 7.99996C1.33399 7.55832 1.6894 7.20291 2.40022 6.49209C2.82679 6.06552 3.02484 5.64283 3.02484 5.03468C3.02484 4.50708 2.92231 3.75474 3.33398 3.33961C3.74894 2.92117 4.50439 3.02415 5.03537 3.02415C5.6435 3.02415 6.0662 2.82612 6.49275 2.39956C7.20358 1.68873 7.559 1.33331 8.00065 1.33331C8.44231 1.33331 8.79772 1.68873 9.50855 2.39956C9.93502 2.82602 10.3576 3.02415 10.9659 3.02415C11.4935 3.02415 12.2459 2.92163 12.661 3.33331C13.0794 3.74827 12.9765 4.50371 12.9765 5.03468C12.9765 5.7057 13.1232 6.01423 13.6011 6.49209C14.3119 7.20291 14.6673 7.55832 14.6673 7.99996C14.6673 8.44161 14.3119 8.79706 13.6011 9.50787C13.1232 9.9857 12.9765 10.2943 12.9765 10.9653C12.9765 11.4962 13.0794 12.2517 12.661 12.6666Z" stroke="#222222"/>
<path d="M6 8.59522C6 8.59522 6.8 9.02975 7.2 9.66665C7.2 9.66665 8.4 7.16665 10 6.33331" stroke="#222222" stroke-linecap="round" stroke-linejoin="round"/>
</svg>
